<svg width="20.000000" height="20.000000" viewBox="0 0 20 20" fill="none" xmlns="http://www.w3.org/2000/svg" xmlns:xlink="http://www.w3.org/1999/xlink">
	<desc>
			Created with Pixso.
	</desc>
	<defs/>
	<path id="Vector" d="M9.55 4.75C8.6 4.75 7.68 5.03 6.89 5.55C6.11 6.07 5.5 6.82 5.13 7.69C4.77 8.56 4.68 9.51 4.86 10.44C5.05 11.36 5.5 12.21 6.17 12.87C6.84 13.54 7.69 13.99 8.62 14.18C9.54 14.36 10.51 14.27 11.38 13.91C12.25 13.55 13 12.93 13.53 12.15C14.05 11.37 14.33 10.45 14.33 9.51C14.33 8.25 13.83 7.04 12.93 6.14C12.03 5.25 10.82 4.75 9.55 4.75ZM9.55 13.03C8.85 13.03 8.17 12.82 7.59 12.43C7.01 12.05 6.55 11.5 6.29 10.85C6.02 10.21 5.95 9.5 6.08 8.82C6.22 8.14 6.56 7.51 7.05 7.02C7.55 6.53 8.18 6.19 8.86 6.06C9.55 5.92 10.26 5.99 10.9 6.26C11.55 6.52 12.1 6.97 12.49 7.55C12.88 8.13 13.08 8.81 13.08 9.51C13.08 10.44 12.71 11.33 12.05 11.99C11.39 12.65 10.49 13.02 9.55 13.03ZM14.12 -0.63L4.98 -0.63C3.49 -0.63 2.06 -0.04 1.01 1C-0.04 2.05 -0.63 3.47 -0.63 4.95L-0.63 14.06C-0.63 15.54 -0.04 16.96 1.01 18.01C2.06 19.06 3.49 19.65 4.98 19.65L14.12 19.65C15.61 19.65 17.04 19.06 18.09 18.01C19.14 16.96 19.73 15.54 19.74 14.06L19.74 4.95C19.73 3.47 19.14 2.05 18.09 1C17.04 -0.04 15.61 -0.63 14.12 -0.63ZM18.49 14.06C18.49 15.21 18.03 16.32 17.21 17.13C16.39 17.95 15.28 18.41 14.12 18.41L4.98 18.41C3.82 18.41 2.71 17.95 1.89 17.13C1.07 16.32 0.61 15.21 0.61 14.06L0.61 4.95C0.61 3.8 1.07 2.7 1.89 1.88C2.71 1.07 3.82 0.61 4.98 0.61L14.12 0.61C15.28 0.61 16.39 1.07 17.21 1.88C18.03 2.7 18.49 3.8 18.49 4.95L18.49 14.06ZM15.99 4.13C15.99 4.33 15.93 4.53 15.82 4.7C15.71 4.87 15.54 5 15.35 5.08C15.16 5.16 14.95 5.18 14.75 5.14C14.55 5.1 14.37 5 14.22 4.86C14.07 4.71 13.98 4.53 13.94 4.33C13.9 4.13 13.92 3.92 13.99 3.73C14.07 3.54 14.21 3.38 14.38 3.27C14.55 3.15 14.75 3.09 14.96 3.09C15.23 3.09 15.49 3.2 15.69 3.39C15.88 3.59 15.99 3.85 15.99 4.13Z" fill="#FFFDF5" fill-opacity="1.000000" fill-rule="nonzero"/>
</svg>
