<svg width="23.000000" height="20.000000" viewBox="0 0 23 20" fill="none" xmlns="http://www.w3.org/2000/svg" xmlns:xlink="http://www.w3.org/1999/xlink">
	<desc>
			Created with Pixso.
	</desc>
	<defs/>
	<path id="Vector" d="M20.19 9.69L19.11 9.69L19.11 17.22L14.36 12.38L13.45 13.31L18.11 18.07L2.1 18.07L6.62 13.31L5.69 12.4L1.03 17.31L1.03 5.92L9.05 14.05C9.3 14.3 9.62 14.43 9.96 14.43C10.31 14.43 10.63 14.3 10.87 14.05L15.18 9.69L13.35 9.69L9.96 13.12L1.87 4.92L11.4 4.92L12.14 3.61L1.03 3.61C0.68 3.61 0.36 3.75 0.11 3.99C-0.13 4.24 -0.26 4.57 -0.26 4.92L-0.26 18.07C-0.26 18.42 -0.13 18.75 0.11 19C0.36 19.24 0.68 19.38 1.03 19.38L19.11 19.38C19.45 19.38 19.78 19.24 20.02 19C20.26 18.75 20.4 18.42 20.4 18.07L20.4 9.68L20.19 9.69Z" fill="#FFFDF5" fill-opacity="1.000000" fill-rule="nonzero"/>
	<path id="Vector" d="M16.85 0.18L12.91 6.98C12.84 7.11 12.8 7.26 12.8 7.41C12.8 7.56 12.84 7.71 12.92 7.85C12.99 7.98 13.1 8.09 13.24 8.16C13.37 8.24 13.52 8.28 13.67 8.29L21.56 8.29C21.71 8.28 21.86 8.24 21.99 8.16C22.13 8.09 22.24 7.98 22.31 7.85C22.39 7.71 22.43 7.56 22.43 7.41C22.43 7.26 22.39 7.11 22.32 6.98L18.38 0.18C18.3 0.05 18.19 -0.06 18.05 -0.14C17.92 -0.22 17.77 -0.26 17.61 -0.26C17.46 -0.26 17.31 -0.22 17.18 -0.14C17.04 -0.06 16.93 0.05 16.85 0.18Z" fill="#FFFDF5" fill-opacity="1.000000" fill-rule="nonzero"/>
</svg>
