<svg width="20.000000" height="21.000000" viewBox="0 0 20 21" fill="none" xmlns="http://www.w3.org/2000/svg" xmlns:xlink="http://www.w3.org/1999/xlink">
	<desc>
			Created with Pixso.
	</desc>
	<defs/>
	<path id="Vector" d="M17.25 20.65L1.98 20.65C1.27 20.65 0.67 20.39 0.18 19.88C-0.32 19.36 -0.57 18.74 -0.57 18.01L-0.57 2.19C-0.57 1.46 -0.32 0.84 0.18 0.33C0.67 -0.19 1.27 -0.45 1.98 -0.45L17.25 -0.45C17.96 -0.45 18.56 -0.19 19.05 0.33C19.55 0.84 19.8 1.46 19.8 2.19L19.8 18.01C19.8 18.74 19.55 19.36 19.05 19.88C18.56 20.39 17.96 20.65 17.25 20.65ZM5.8 7.47L5.8 5.49C5.8 5.12 5.69 4.75 5.47 4.4C5.25 4.04 5.01 3.78 4.74 3.63C4.48 3.48 4.27 3.48 4.12 3.61L2.67 5.14C2.27 5.55 2.05 6.1 2 6.8C1.94 7.49 2.05 8.24 2.3 9.06C2.56 9.88 2.98 10.74 3.55 11.66C4.12 12.57 4.8 13.44 5.6 14.26C6.39 15.09 7.23 15.79 8.11 16.39C9 16.98 9.83 17.41 10.62 17.68C11.41 17.96 12.14 18.07 12.81 18.01C13.48 17.96 14.01 17.72 14.41 17.31L15.88 15.79C16.01 15.65 16.01 15.44 15.86 15.16C15.72 14.88 15.47 14.62 15.12 14.4C14.78 14.17 14.43 14.06 14.07 14.06L12.16 14.06L10.87 14.88C10.27 14.72 9.54 14.27 8.66 13.54C7.79 12.81 7 12 6.29 11.09C5.59 10.18 5.16 9.42 5 8.8L5.8 7.47ZM13.39 10.76L14.69 10.99C14.58 9.34 13.96 7.93 12.84 6.76C11.71 5.6 10.36 4.96 8.78 4.85L8.98 6.19C10.13 6.34 11.12 6.84 11.94 7.69C12.76 8.54 13.25 9.57 13.39 10.76ZM9.22 7.57L9.46 9.05C9.97 9.31 10.36 9.72 10.63 10.27L12.06 10.51C11.89 9.79 11.55 9.16 11.04 8.63C10.53 8.1 9.92 7.75 9.22 7.57ZM8.34 2.19L8.56 3.53C9.89 3.56 11.11 3.92 12.23 4.61C13.35 5.31 14.25 6.23 14.92 7.39C15.59 8.55 15.93 9.82 15.96 11.19L17.25 11.42C17.25 10.17 17.02 8.98 16.55 7.84C16.08 6.7 15.44 5.71 14.65 4.89C13.85 4.07 12.9 3.41 11.8 2.92C10.7 2.44 9.55 2.19 8.34 2.19Z" fill="#FFFDF5" fill-opacity="1.000000" fill-rule="nonzero"/>
</svg>
