<svg width="26.000000" height="4.000000" viewBox="0 0 26 4" fill="none" xmlns="http://www.w3.org/2000/svg" xmlns:xlink="http://www.w3.org/1999/xlink">
	<desc>
			Created with Pixso.
	</desc>
	<defs/>
	<path id="Arrow 9" d="M24.64 1.66L23.4 0.42C23.3 0.32 23.3 0.16 23.4 0.06C23.5 -0.03 23.66 -0.03 23.76 0.06L25.17 1.48C25.27 1.58 25.27 1.73 25.17 1.83L23.76 3.25C23.66 3.35 23.5 3.35 23.4 3.25C23.3 3.15 23.3 2.99 23.4 2.89L24.64 1.66Z" fill="#514A7E" fill-opacity="1.000000" fill-rule="nonzero"/>
	<path id="Arrow 9" d="M24.39 1.41L23.4 0.42C23.3 0.32 23.3 0.16 23.4 0.06C23.5 -0.03 23.66 -0.03 23.76 0.06L25.17 1.48C25.27 1.58 25.27 1.73 25.17 1.83L23.76 3.25C23.66 3.35 23.5 3.35 23.4 3.25C23.3 3.15 23.3 2.99 23.4 2.89L24.39 1.91L0 1.91L0 1.41L24.39 1.41Z" fill="#FFFDF5" fill-opacity="1.000000" fill-rule="evenodd"/>
</svg>
