<svg width="20.000000" height="20.000000" viewBox="0 0 20 20" fill="none" xmlns="http://www.w3.org/2000/svg" xmlns:xlink="http://www.w3.org/1999/xlink">
	<desc>
			Created with Pixso.
	</desc>
	<defs>
		<clipPath id="clip59_122">
			<rect id="clarity:plus-line" width="20.000000" height="20.000000" fill="white" fill-opacity="0"/>
		</clipPath>
	</defs>
	<rect id="clarity:plus-line" width="20.000000" height="20.000000" fill="#FFFFFF" fill-opacity="0"/>
	<g clip-path="url(#clip59_122)">
		<path id="Vector" d="M16.66 9.44L10.55 9.44L10.55 3.33C10.55 3.18 10.49 3.04 10.39 2.94C10.28 2.83 10.14 2.77 10 2.77C9.85 2.77 9.71 2.83 9.6 2.94C9.5 3.04 9.44 3.18 9.44 3.33L9.44 9.44L3.33 9.44C3.18 9.44 3.04 9.5 2.94 9.6C2.83 9.71 2.77 9.85 2.77 10C2.77 10.07 2.78 10.14 2.81 10.21C2.84 10.27 2.88 10.33 2.93 10.38C2.98 10.43 3.05 10.47 3.12 10.49C3.18 10.52 3.26 10.52 3.33 10.52L9.44 10.52L9.44 16.66C9.44 16.81 9.5 16.95 9.6 17.05C9.71 17.16 9.85 17.22 10 17.22C10.14 17.22 10.28 17.16 10.39 17.05C10.49 16.95 10.55 16.81 10.55 16.66L10.55 10.55L16.66 10.55C16.81 10.55 16.95 10.49 17.05 10.39C17.16 10.28 17.22 10.14 17.22 10C17.22 9.85 17.16 9.71 17.05 9.6C16.95 9.5 16.81 9.44 16.66 9.44Z" fill="#514A7E" fill-opacity="1.000000" fill-rule="nonzero"/>
	</g>
</svg>
