<svg width="30.000000" height="30.000000" viewBox="0 0 30 30" fill="none" xmlns="http://www.w3.org/2000/svg" xmlns:xlink="http://www.w3.org/1999/xlink">
	<desc>
			Created with Pixso.
	</desc>
	<defs>
		<clipPath id="clip169_1983">
			<rect id="clarity:coin-bag-line" width="30.000000" height="30.000000" fill="white" fill-opacity="0"/>
		</clipPath>
	</defs>
	<rect id="clarity:coin-bag-line" width="30.000000" height="30.000000" fill="#FFFFFF" fill-opacity="0"/>
	<g clip-path="url(#clip169_1983)">
		<path id="Vector" d="M18 24.16C18 23.94 17.91 23.73 17.75 23.57C17.6 23.42 17.38 23.33 17.16 23.33L12.16 23.33C11.94 23.33 11.73 23.42 11.57 23.57C11.42 23.73 11.33 23.94 11.33 24.16C11.33 24.38 11.42 24.59 11.57 24.75C11.73 24.91 11.94 25 12.16 25L17.16 25C17.38 25 17.6 24.91 17.75 24.75C17.91 24.59 18 24.38 18 24.16Z" fill="#514A7E" fill-opacity="1.000000" fill-rule="nonzero"/>
		<path id="Vector" d="M18.78 20L13.78 20C13.56 20 13.35 20.08 13.19 20.24C13.03 20.4 12.95 20.61 12.95 20.83C12.95 21.05 13.03 21.26 13.19 21.42C13.35 21.57 13.56 21.66 13.78 21.66L18.78 21.66C19 21.66 19.21 21.57 19.37 21.42C19.52 21.26 19.61 21.05 19.61 20.83C19.61 20.61 19.52 20.4 19.37 20.24C19.21 20.08 19 20 18.78 20Z" fill="#514A7E" fill-opacity="1.000000" fill-rule="nonzero"/>
		<path id="Vector" d="M18.33 26.66L13.33 26.66C13.11 26.66 12.9 26.75 12.74 26.91C12.58 27.06 12.5 27.27 12.5 27.5C12.5 27.72 12.58 27.93 12.74 28.08C12.9 28.24 13.11 28.33 13.33 28.33L18.33 28.33C18.55 28.33 18.76 28.24 18.92 28.08C19.07 27.93 19.16 27.72 19.16 27.5C19.16 27.27 19.07 27.06 18.92 26.91C18.76 26.75 18.55 26.66 18.33 26.66Z" fill="#514A7E" fill-opacity="1.000000" fill-rule="nonzero"/>
		<path id="Vector" d="M27.25 26.66L21.41 26.66C21.19 26.66 20.98 26.75 20.82 26.91C20.67 27.06 20.58 27.27 20.58 27.5C20.58 27.72 20.67 27.93 20.82 28.08C20.98 28.24 21.19 28.33 21.41 28.33L27.25 28.33C27.47 28.33 27.68 28.24 27.83 28.08C27.99 27.93 28.08 27.72 28.08 27.5C28.08 27.27 27.99 27.06 27.83 26.91C27.68 26.75 27.47 26.66 27.25 26.66Z" fill="#514A7E" fill-opacity="1.000000" fill-rule="nonzero"/>
		<path id="Vector" d="M28.08 23.33L22.24 23.33C22.02 23.33 21.81 23.42 21.66 23.57C21.5 23.73 21.41 23.94 21.41 24.16C21.41 24.38 21.5 24.59 21.66 24.75C21.81 24.91 22.02 25 22.24 25L28.08 25C28.3 25 28.51 24.91 28.67 24.75C28.82 24.59 28.91 24.38 28.91 24.16C28.91 23.94 28.82 23.73 28.67 23.57C28.51 23.42 28.3 23.33 28.08 23.33Z" fill="#514A7E" fill-opacity="1.000000" fill-rule="nonzero"/>
		<path id="Vector" d="M28.11 21.66C27.87 18.73 27.07 15.87 25.76 13.23C24.51 10.85 22.7 8.8 20.5 7.25L22.5 2.85C22.56 2.71 22.59 2.57 22.58 2.42C22.57 2.27 22.52 2.13 22.44 2.01C22.36 1.91 22.26 1.82 22.14 1.76C22.03 1.7 21.9 1.66 21.77 1.66L8.16 1.66C8.02 1.66 7.88 1.7 7.76 1.76C7.64 1.83 7.53 1.93 7.46 2.05C7.38 2.16 7.34 2.3 7.33 2.44C7.32 2.58 7.34 2.72 7.4 2.85L9.44 7.27C7.25 8.81 5.46 10.86 4.21 13.23C2.42 16.56 1.86 20.64 1.71 23.46C1.69 23.88 1.75 24.29 1.89 24.68C2.04 25.07 2.26 25.42 2.54 25.72C2.85 26.01 3.2 26.24 3.6 26.4C3.99 26.55 4.41 26.62 4.83 26.61L10 26.61L10 25L4.76 25C4.57 24.99 4.39 24.96 4.21 24.88C4.04 24.81 3.88 24.7 3.75 24.56C3.62 24.43 3.52 24.27 3.46 24.09C3.39 23.91 3.37 23.72 3.38 23.54C3.5 21.36 3.95 17.22 5.68 14C6.89 11.68 8.69 9.73 10.89 8.33L11.73 8.33C11.16 9.11 10.64 9.92 10.17 10.76C9.69 11.66 9.28 12.59 8.94 13.55L10.09 14.31C10.42 13.32 10.84 12.35 11.33 11.42C11.93 10.34 12.61 9.31 13.37 8.33L14.2 8.33C14.76 9.66 15.16 11.06 15.38 12.5C15.56 13.56 15.65 14.63 15.64 15.71L16.96 14.79C16.92 13.95 16.84 13.11 16.69 12.29C16.47 10.94 16.11 9.61 15.63 8.33L16.28 8.33L17.04 6.66L11 6.66L9.46 3.33L20.47 3.33L18.39 7.89C18.74 8.08 19.09 8.3 19.41 8.54C21.45 9.95 23.13 11.82 24.29 14.01C25.46 16.41 26.19 19 26.44 21.66L28.11 21.66Z" fill="#514A7E" fill-opacity="1.000000" fill-rule="nonzero"/>
	</g>
</svg>
