<svg width="30.000000" height="30.000000" viewBox="0 0 30 30" fill="none" xmlns="http://www.w3.org/2000/svg" xmlns:xlink="http://www.w3.org/1999/xlink">
	<desc>
			Created with Pixso.
	</desc>
	<defs>
		<clipPath id="clip169_1960">
			<rect id="clarity:employee-group-line" width="30.000000" height="30.000000" fill="white" fill-opacity="0"/>
		</clipPath>
	</defs>
	<rect id="clarity:employee-group-line" width="30.000000" height="30.000000" fill="#FFFFFF" fill-opacity="0"/>
	<g clip-path="url(#clip169_1960)">
		<path id="Vector" d="M15.34 13.59C14.41 13.58 13.49 13.29 12.72 12.76C11.94 12.23 11.34 11.49 10.99 10.62C10.64 9.75 10.55 8.8 10.74 7.88C10.93 6.96 11.39 6.12 12.05 5.46C12.72 4.8 13.57 4.35 14.49 4.17C15.41 4 16.36 4.09 17.22 4.45C18.09 4.81 18.83 5.42 19.35 6.2C19.87 6.98 20.14 7.9 20.14 8.84C20.14 10.1 19.63 11.31 18.73 12.2C17.83 13.09 16.61 13.59 15.34 13.59ZM15.34 5.75C14.74 5.76 14.15 5.95 13.65 6.3C13.14 6.64 12.76 7.13 12.53 7.69C12.31 8.26 12.25 8.87 12.38 9.47C12.5 10.06 12.8 10.61 13.23 11.03C13.66 11.46 14.21 11.75 14.81 11.86C15.41 11.98 16.03 11.91 16.59 11.68C17.15 11.45 17.62 11.05 17.96 10.54C18.3 10.04 18.48 9.44 18.48 8.84C18.47 8.01 18.13 7.23 17.55 6.65C16.96 6.07 16.17 5.75 15.34 5.75Z" fill="#514A7E" fill-opacity="1.000000" fill-rule="nonzero"/>
		<path id="Vector" d="M15.34 13.59C14.41 13.58 13.49 13.29 12.72 12.76C11.94 12.23 11.34 11.49 10.99 10.62C10.64 9.75 10.55 8.8 10.74 7.88C10.93 6.96 11.39 6.12 12.05 5.46C12.72 4.8 13.57 4.35 14.49 4.17C15.41 4 16.36 4.09 17.22 4.45C18.09 4.81 18.83 5.42 19.35 6.2C19.87 6.98 20.14 7.9 20.14 8.84C20.14 10.1 19.63 11.31 18.73 12.2C17.83 13.09 16.61 13.59 15.34 13.59ZM15.34 5.75C14.74 5.76 14.15 5.95 13.65 6.3C13.14 6.64 12.76 7.13 12.53 7.69C12.31 8.26 12.25 8.87 12.38 9.47C12.5 10.06 12.8 10.61 13.23 11.03C13.66 11.46 14.21 11.75 14.81 11.86C15.41 11.98 16.03 11.91 16.59 11.68C17.15 11.45 17.62 11.05 17.96 10.54C18.3 10.04 18.48 9.44 18.48 8.84C18.47 8.01 18.13 7.23 17.55 6.65C16.96 6.07 16.17 5.75 15.34 5.75Z" fill="#514A7E" fill-opacity="1.000000" fill-rule="nonzero"/>
		<path id="Vector" d="M18.25 14.7C14.56 14.06 10.75 14.65 7.42 16.37C7.18 16.5 6.99 16.7 6.85 16.93C6.72 17.17 6.65 17.43 6.66 17.7L6.66 20.67C6.66 20.89 6.75 21.1 6.91 21.26C7.06 21.42 7.27 21.5 7.5 21.5C7.72 21.5 7.93 21.42 8.08 21.26C8.24 21.1 8.33 20.89 8.33 20.67L8.33 17.81C11.42 16.26 14.93 15.77 18.33 16.41L18.25 14.7Z" fill="#514A7E" fill-opacity="1.000000" fill-rule="nonzero"/>
		<path id="Vector" d="M27.5 18.33L21.91 18.33L21.91 17.1C21.91 16.87 21.82 16.66 21.67 16.51C21.51 16.35 21.3 16.26 21.08 16.26C20.86 16.26 20.65 16.35 20.49 16.51C20.33 16.66 20.25 16.87 20.25 17.1L20.25 18.33L14.16 18.33C13.94 18.33 13.73 18.42 13.57 18.57C13.42 18.73 13.33 18.94 13.33 19.16L13.33 27.5C13.33 27.72 13.42 27.93 13.57 28.08C13.73 28.24 13.94 28.33 14.16 28.33L27.5 28.33C27.72 28.33 27.93 28.24 28.08 28.08C28.24 27.93 28.33 27.72 28.33 27.5L28.33 19.16C28.33 18.94 28.24 18.73 28.08 18.57C27.93 18.42 27.72 18.33 27.5 18.33ZM26.66 26.66L15 26.66L15 20L20.25 20L20.25 20.34C20.25 20.56 20.33 20.77 20.49 20.93C20.65 21.08 20.86 21.17 21.08 21.17C21.3 21.17 21.51 21.08 21.67 20.93C21.82 20.77 21.91 20.56 21.91 20.34L21.91 20L26.66 20L26.66 26.66Z" fill="#514A7E" fill-opacity="1.000000" fill-rule="nonzero"/>
		<path id="Vector" d="M18.17 22.85L23.14 22.85L23.14 24.01L18.17 24.01L18.17 22.85Z" fill="#514A7E" fill-opacity="1.000000" fill-rule="nonzero"/>
		<path id="Vector" d="M9.03 10.19C6.72 10.23 4.45 10.8 2.4 11.86C2.18 11.98 1.99 12.16 1.86 12.37C1.73 12.59 1.66 12.83 1.66 13.09L1.66 15.67C1.66 15.89 1.75 16.1 1.91 16.26C2.06 16.42 2.27 16.5 2.5 16.5C2.72 16.5 2.93 16.42 3.08 16.26C3.24 16.1 3.33 15.89 3.33 15.67L3.33 13.25C5.29 12.28 7.46 11.8 9.65 11.86C9.36 11.34 9.15 10.78 9.03 10.19Z" fill="#514A7E" fill-opacity="1.000000" fill-rule="nonzero"/>
		<path id="Vector" d="M27.59 11.85C25.75 10.89 23.73 10.32 21.65 10.19C21.53 10.77 21.33 11.33 21.04 11.85C23 11.9 24.91 12.38 26.66 13.25L26.66 15.67C26.66 15.89 26.75 16.1 26.91 16.26C27.06 16.42 27.27 16.5 27.5 16.5C27.72 16.5 27.93 16.42 28.08 16.26C28.24 16.1 28.33 15.89 28.33 15.67L28.33 13.09C28.33 12.83 28.26 12.58 28.13 12.37C28 12.15 27.81 11.97 27.59 11.85Z" fill="#514A7E" fill-opacity="1.000000" fill-rule="nonzero"/>
		<path id="Vector" d="M8.88 8.84L8.88 8.28C8.23 8.19 7.63 7.85 7.22 7.34C6.81 6.83 6.61 6.17 6.67 5.52C6.73 4.86 7.04 4.25 7.53 3.82C8.03 3.38 8.67 3.16 9.33 3.19C10.01 3.19 10.67 3.45 11.16 3.93C11.6 3.57 12.07 3.27 12.58 3.03C12.01 2.38 11.26 1.91 10.42 1.69C9.59 1.48 8.7 1.52 7.89 1.82C7.08 2.11 6.38 2.64 5.87 3.35C5.37 4.05 5.1 4.89 5.08 5.75C5.1 6.81 5.51 7.82 6.23 8.59C6.96 9.36 7.94 9.84 9 9.92C8.92 9.56 8.89 9.2 8.88 8.84Z" fill="#514A7E" fill-opacity="1.000000" fill-rule="nonzero"/>
		<path id="Vector" d="M20.64 1.52C20.06 1.52 19.5 1.63 18.97 1.86C18.44 2.08 17.96 2.4 17.56 2.81C18.12 3.02 18.66 3.3 19.14 3.64C19.53 3.37 19.99 3.22 20.46 3.18C20.93 3.15 21.41 3.25 21.83 3.46C22.25 3.68 22.6 4.01 22.86 4.41C23.11 4.81 23.24 5.27 23.25 5.75C23.25 6.23 23.11 6.71 22.84 7.11C22.58 7.52 22.2 7.85 21.76 8.05C21.79 8.31 21.81 8.57 21.81 8.83C21.81 9.16 21.78 9.5 21.73 9.83C22.64 9.6 23.44 9.07 24.02 8.33C24.6 7.59 24.91 6.68 24.92 5.75C24.91 4.62 24.45 3.54 23.65 2.75C22.85 1.96 21.76 1.52 20.64 1.52Z" fill="#514A7E" fill-opacity="1.000000" fill-rule="nonzero"/>
	</g>
</svg>
