<svg width="30.000000" height="30.000000" viewBox="0 0 30 30" fill="none" xmlns="http://www.w3.org/2000/svg" xmlns:xlink="http://www.w3.org/1999/xlink">
	<desc>
			Created with Pixso.
	</desc>
	<defs>
		<clipPath id="clip169_1971">
			<rect id="clarity:list-line" width="30.000000" height="30.000000" fill="white" fill-opacity="0"/>
		</clipPath>
	</defs>
	<rect id="clarity:list-line" width="30.000000" height="30.000000" fill="#FFFFFF" fill-opacity="0"/>
	<g clip-path="url(#clip169_1971)">
		<path id="Vector" d="M12.5 6.66L20 6.66L20 8.33L12.5 8.33L12.5 6.66Z" fill="#514A7E" fill-opacity="1.000000" fill-rule="nonzero"/>
		<path id="Vector" d="M12.5 10L20 10L20 11.66L12.5 11.66L12.5 10Z" fill="#514A7E" fill-opacity="1.000000" fill-rule="nonzero"/>
		<path id="Vector" d="M12.5 13.33L20 13.33L20 14.99L12.5 14.99L12.5 13.33Z" fill="#514A7E" fill-opacity="1.000000" fill-rule="nonzero"/>
		<path id="Vector" d="M12.5 16.66L20 16.66L20 18.33L12.5 18.33L12.5 16.66Z" fill="#514A7E" fill-opacity="1.000000" fill-rule="nonzero"/>
		<path id="Vector" d="M12.5 20L20 20L20 21.66L12.5 21.66L12.5 20Z" fill="#514A7E" fill-opacity="1.000000" fill-rule="nonzero"/>
		<path id="Vector" d="M9.16 6.66L10.83 6.66L10.83 8.33L9.16 8.33L9.16 6.66Z" fill="#514A7E" fill-opacity="1.000000" fill-rule="nonzero"/>
		<path id="Vector" d="M9.16 10L10.83 10L10.83 11.66L9.16 11.66L9.16 10Z" fill="#514A7E" fill-opacity="1.000000" fill-rule="nonzero"/>
		<path id="Vector" d="M9.16 13.33L10.83 13.33L10.83 14.99L9.16 14.99L9.16 13.33Z" fill="#514A7E" fill-opacity="1.000000" fill-rule="nonzero"/>
		<path id="Vector" d="M9.16 16.66L10.83 16.66L10.83 18.33L9.16 18.33L9.16 16.66Z" fill="#514A7E" fill-opacity="1.000000" fill-rule="nonzero"/>
		<path id="Vector" d="M9.16 20L10.83 20L10.83 21.66L9.16 21.66L9.16 20Z" fill="#514A7E" fill-opacity="1.000000" fill-rule="nonzero"/>
		<path id="Vector" d="M23.33 1.66L6.66 1.66C6.22 1.66 5.8 1.84 5.48 2.15C5.17 2.46 5 2.89 5 3.33L5 26.66C5 27.1 5.17 27.53 5.48 27.84C5.8 28.15 6.22 28.33 6.66 28.33L23.33 28.33C23.77 28.33 24.19 28.15 24.51 27.84C24.82 27.53 25 27.1 25 26.66L25 3.33C25 2.89 24.82 2.46 24.51 2.15C24.19 1.84 23.77 1.66 23.33 1.66ZM23.33 26.66L6.66 26.66L6.66 3.33L23.33 3.33L23.33 26.66Z" fill="#514A7E" fill-opacity="1.000000" fill-rule="nonzero"/>
	</g>
</svg>
