<svg width="30.000000" height="30.000000" viewBox="0 0 30 30" fill="none" xmlns="http://www.w3.org/2000/svg" xmlns:xlink="http://www.w3.org/1999/xlink">
	<desc>
			Created with Pixso.
	</desc>
	<defs>
		<clipPath id="clip169_1957">
			<rect id="clarity:cog-line" width="30.000000" height="30.000000" fill="white" fill-opacity="0"/>
		</clipPath>
	</defs>
	<rect id="clarity:cog-line" width="30.000000" height="30.000000" fill="#FFFFFF" fill-opacity="0"/>
	<g clip-path="url(#clip169_1957)">
		<path id="Vector" d="M15.08 9.16C11.83 9.16 9.25 11.75 9.25 15C9.25 18.25 11.83 20.83 15.08 20.83C18.33 20.83 20.91 18.25 20.91 15C20.91 11.75 18.33 9.16 15.08 9.16ZM15.08 19.16C12.75 19.16 10.91 17.33 10.91 15C10.91 12.66 12.75 10.83 15.08 10.83C17.41 10.83 19.25 12.66 19.25 15C19.25 17.33 17.41 19.16 15.08 19.16Z" fill="#514A7E" fill-opacity="1.000000" fill-rule="nonzero"/>
		<path id="Vector" d="M27.33 12.25L25 11.5L24.5 10.25L25.66 8.08C25.91 7.58 25.83 6.91 25.41 6.5L23.41 4.5C23 4.08 22.33 4 21.83 4.25L19.66 5.41L18.41 4.91L17.66 2.58C17.5 2.08 17 1.66 16.41 1.66L13.58 1.66C13 1.66 12.5 2.08 12.41 2.66L11.66 5C11.16 5.08 10.75 5.25 10.33 5.5L8.16 4.33C7.66 4.08 7 4.16 6.58 4.58L4.58 6.58C4.16 7 4.08 7.66 4.33 8.16L5.41 10.25C5.25 10.66 5.08 11.16 4.91 11.58L2.58 12.33C2.08 12.5 1.66 13 1.66 13.58L1.66 16.41C1.66 17 2.08 17.5 2.66 17.66L5 18.41L5.5 19.66L4.33 21.83C4.08 22.33 4.16 23 4.58 23.41L6.58 25.41C7 25.83 7.66 25.91 8.16 25.66L10.33 24.5L11.58 25L12.33 27.41C12.5 27.91 13 28.33 13.58 28.33L16.41 28.33C17 28.33 17.5 27.91 17.66 27.41L18.41 25L19.66 24.5L21.83 25.66C22.33 25.91 23 25.83 23.41 25.41L25.41 23.41C25.83 23 25.91 22.33 25.66 21.83L24.5 19.66L25 18.41L27.41 17.66C27.91 17.5 28.33 17 28.33 16.41L28.33 13.58C28.33 13 27.91 12.41 27.33 12.25ZM26.66 16.16L23.66 17.08L23.58 17.5L22.83 19.25L22.58 19.66L24.08 22.41L22.41 24.08L19.66 22.58L19.25 22.83C18.66 23.16 18.08 23.41 17.5 23.58L17.08 23.66L16.16 26.66L13.83 26.66L12.91 23.66L12.5 23.58L10.75 22.83L10.33 22.58L7.58 24.08L5.91 22.41L7.41 19.66L7.16 19.25C6.83 18.66 6.58 18.08 6.41 17.5L6.33 17.08L3.33 16.16L3.33 13.83L6.16 13L6.33 12.58C6.5 11.91 6.75 11.33 7.08 10.75L7.33 10.33L5.91 7.58L7.58 5.91L10.25 7.41L10.66 7.16C11.25 6.83 11.83 6.58 12.5 6.41L12.91 6.25L13.83 3.33L16.16 3.33L17.08 6.25L17.5 6.41C18.08 6.58 18.66 6.83 19.25 7.16L19.66 7.41L22.41 5.91L24.08 7.58L22.58 10.33L22.83 10.75C23.16 11.33 23.41 11.91 23.58 12.5L23.66 12.91L26.66 13.83L26.66 16.16Z" fill="#514A7E" fill-opacity="1.000000" fill-rule="nonzero"/>
	</g>
</svg>
